# 3ds Max Wavefront OBJ Exporter v0.99 - (c)2007 guruware
# File Created: 26.09.2022 16:55:35

mtllib Banner.mtl

#
# object Box001
#

v  1.2978 0.2198 0.2312
v  1.2978 0.2198 0.2187
v  1.9421 0.2198 0.2187
v  1.9421 0.2198 0.2312
v  1.2978 1.1198 0.2312
v  1.9421 1.1198 0.2312
v  1.9421 1.1198 0.2187
v  1.2978 1.1198 0.2187
# 8 vertices

vn -0.5774 -0.5774 0.5774
vn -0.5774 -0.5774 -0.5774
vn 0.5774 -0.5774 -0.5774
vn 0.5774 -0.5774 0.5774
vn -0.5774 0.5774 0.5774
vn 0.5774 0.5774 0.5774
vn 0.5774 0.5774 -0.5774
vn -0.5774 0.5774 -0.5774
# 8 vertex normals

vt 1.0000 0.0000 0.0000
vt 1.0000 1.0000 0.0000
vt 0.0000 1.0000 0.0000
vt 0.0000 0.0000 0.0000
# 4 texture coords

o Box001
g Box001
usemtl wire_135006006
s 2
f 1/1/1 2/2/2 3/3/3 4/4/4 
s 4
f 5/4/5 6/1/6 7/2/7 8/3/8 
s 8
f 1/4/1 4/1/4 6/2/6 5/3/5 
s 16
f 4/4/4 3/1/3 7/2/7 6/3/6 
s 32
f 3/4/3 2/1/2 8/2/8 7/3/7 
s 64
f 2/4/2 1/1/1 5/2/5 8/3/8 
# 6 polygons

#
# object Cylinder002
#

v  1.2999 1.1136 0.1964
v  1.2999 1.0870 0.1741
v  1.2999 1.0810 0.1845
v  1.2999 1.0789 0.1964
v  1.2999 1.1076 0.1622
v  1.2999 1.0963 0.1663
v  1.2999 1.1309 0.1663
v  1.2999 1.1196 0.1622
v  1.2999 1.1462 0.1845
v  1.2999 1.1401 0.1741
v  1.2999 1.1462 0.2083
v  1.2999 1.1483 0.1964
v  1.2999 1.1309 0.2265
v  1.2999 1.1401 0.2187
v  1.2999 1.1076 0.2306
v  1.2999 1.1196 0.2306
v  1.2999 1.0870 0.2187
v  1.2999 1.0963 0.2265
v  1.2999 1.0810 0.2083
v  1.4289 1.0810 0.1845
v  1.4289 1.0789 0.1964
v  1.4289 1.0870 0.1741
v  1.4289 1.0963 0.1663
v  1.4289 1.1076 0.1622
v  1.4289 1.1196 0.1622
v  1.4289 1.1309 0.1663
v  1.4289 1.1401 0.1741
v  1.4289 1.1462 0.1845
v  1.4289 1.1483 0.1964
v  1.4289 1.1462 0.2083
v  1.4289 1.1401 0.2187
v  1.4289 1.1309 0.2265
v  1.4289 1.1196 0.2306
v  1.4289 1.1076 0.2306
v  1.4289 1.0963 0.2265
v  1.4289 1.0870 0.2187
v  1.4289 1.0810 0.2083
v  1.5579 1.0810 0.1845
v  1.5579 1.0789 0.1964
v  1.5579 1.0870 0.1741
v  1.5579 1.0963 0.1663
v  1.5579 1.1076 0.1622
v  1.5579 1.1196 0.1622
v  1.5579 1.1309 0.1663
v  1.5579 1.1401 0.1741
v  1.5579 1.1462 0.1845
v  1.5579 1.1483 0.1964
v  1.5579 1.1462 0.2083
v  1.5579 1.1401 0.2187
v  1.5579 1.1309 0.2265
v  1.5579 1.1196 0.2306
v  1.5579 1.1076 0.2306
v  1.5579 1.0963 0.2265
v  1.5579 1.0870 0.2187
v  1.5579 1.0810 0.2083
v  1.6870 1.0810 0.1845
v  1.6870 1.0789 0.1964
v  1.6870 1.0870 0.1741
v  1.6870 1.0963 0.1663
v  1.6870 1.1076 0.1622
v  1.6870 1.1196 0.1622
v  1.6870 1.1309 0.1663
v  1.6870 1.1401 0.1741
v  1.6870 1.1462 0.1845
v  1.6870 1.1483 0.1964
v  1.6870 1.1462 0.2083
v  1.6870 1.1401 0.2187
v  1.6870 1.1309 0.2265
v  1.6870 1.1196 0.2306
v  1.6870 1.1076 0.2306
v  1.6870 1.0963 0.2265
v  1.6870 1.0870 0.2187
v  1.6870 1.0810 0.2083
v  1.8160 1.0810 0.1845
v  1.8160 1.0789 0.1964
v  1.8160 1.0870 0.1741
v  1.8160 1.0963 0.1663
v  1.8160 1.1076 0.1622
v  1.8160 1.1196 0.1622
v  1.8160 1.1309 0.1663
v  1.8160 1.1401 0.1741
v  1.8160 1.1462 0.1845
v  1.8160 1.1483 0.1964
v  1.8160 1.1462 0.2083
v  1.8160 1.1401 0.2187
v  1.8160 1.1309 0.2265
v  1.8160 1.1196 0.2306
v  1.8160 1.1076 0.2306
v  1.8160 1.0963 0.2265
v  1.8160 1.0870 0.2187
v  1.8160 1.0810 0.2083
v  1.9450 1.0810 0.1845
v  1.9450 1.0789 0.1964
v  1.9450 1.0870 0.1741
v  1.9450 1.0963 0.1663
v  1.9450 1.1076 0.1622
v  1.9450 1.1196 0.1622
v  1.9450 1.1309 0.1663
v  1.9450 1.1401 0.1741
v  1.9450 1.1462 0.1845
v  1.9450 1.1483 0.1964
v  1.9450 1.1462 0.2083
v  1.9450 1.1401 0.2187
v  1.9450 1.1309 0.2265
v  1.9450 1.1196 0.2306
v  1.9450 1.1076 0.2306
v  1.9450 1.0963 0.2265
v  1.9450 1.0870 0.2187
v  1.9450 1.0810 0.2083
v  1.9450 1.1136 0.1964
# 110 vertices

vn -1.0000 -0.0000 -0.0000
vn -0.6700 -0.5687 -0.4772
vn -0.6700 -0.6976 -0.2539
vn -0.6700 -0.7423 0.0000
vn -0.6700 -0.1289 -0.7311
vn -0.6700 -0.3712 -0.6429
vn -0.6700 0.3712 -0.6429
vn -0.6700 0.1289 -0.7311
vn -0.6701 0.6975 -0.2539
vn -0.6700 0.5687 -0.4772
vn -0.6700 0.6976 0.2539
vn -0.6701 0.7423 0.0000
vn -0.6701 0.3711 0.6429
vn -0.6701 0.5686 0.4771
vn -0.6701 -0.1289 0.7310
vn -0.6700 0.1289 0.7311
vn -0.6700 -0.5687 0.4772
vn -0.6701 -0.3712 0.6428
vn -0.6700 -0.6976 0.2539
vn 0.0000 -0.9397 -0.3420
vn 0.0000 -1.0000 0.0000
vn 0.0000 -0.7660 -0.6428
vn 0.0000 -0.5000 -0.8660
vn 0.0000 -0.1736 -0.9848
vn 0.0000 0.1736 -0.9848
vn 0.0000 0.5000 -0.8660
vn -0.0000 0.7660 -0.6428
vn -0.0000 0.9397 -0.3420
vn -0.0000 1.0000 0.0000
vn -0.0000 0.9397 0.3420
vn -0.0000 0.7661 0.6428
vn -0.0000 0.5000 0.8660
vn -0.0000 0.1736 0.9848
vn -0.0000 -0.1736 0.9848
vn -0.0000 -0.5000 0.8660
vn 0.0000 -0.7660 0.6428
vn 0.0000 -0.9397 0.3420
vn 0.6700 -0.6976 -0.2539
vn 0.6700 -0.7423 0.0000
vn 0.6700 -0.5687 -0.4772
vn 0.6700 -0.3712 -0.6429
vn 0.6700 -0.1289 -0.7311
vn 0.6700 0.1289 -0.7311
vn 0.6700 0.3712 -0.6429
vn 0.6700 0.5687 -0.4772
vn 0.6701 0.6975 -0.2539
vn 0.6701 0.7423 0.0000
vn 0.6700 0.6976 0.2539
vn 0.6701 0.5686 0.4771
vn 0.6701 0.3711 0.6429
vn 0.6700 0.1289 0.7311
vn 0.6701 -0.1289 0.7310
vn 0.6701 -0.3712 0.6428
vn 0.6700 -0.5687 0.4772
vn 0.6700 -0.6976 0.2539
vn 1.0000 0.0000 0.0000
# 56 vertex normals

vt 0.5000 0.0000 0.0000
vt 0.8611 0.0000 1.0000
vt 0.8056 0.0000 1.0000
vt 0.7500 0.0000 1.0000
vt 0.9722 0.0000 1.0000
vt 0.9167 0.0000 1.0000
vt 0.0833 0.0000 1.0000
vt 0.0278 0.0000 1.0000
vt -0.0278 0.0000 1.0000
vt 0.1944 0.0000 1.0000
vt 0.1389 0.0000 1.0000
vt 0.3056 0.0000 1.0000
vt 0.2500 0.0000 1.0000
vt 0.4167 0.0000 1.0000
vt 0.3611 0.0000 1.0000
vt 0.5278 0.0000 1.0000
vt 0.4722 0.0000 1.0000
vt 0.6389 0.0000 1.0000
vt 0.5833 0.0000 1.0000
vt 0.6944 0.0000 1.0000
vt 0.8056 0.2000 1.0000
vt 0.7500 0.2000 1.0000
vt 0.8611 0.2000 1.0000
vt 0.9167 0.2000 1.0000
vt 0.9722 0.2000 1.0000
vt 0.0278 0.2000 1.0000
vt -0.0278 0.2000 1.0000
vt 0.0833 0.2000 1.0000
vt 0.1389 0.2000 1.0000
vt 0.1944 0.2000 1.0000
vt 0.2500 0.2000 1.0000
vt 0.3056 0.2000 1.0000
vt 0.3611 0.2000 1.0000
vt 0.4167 0.2000 1.0000
vt 0.4722 0.2000 1.0000
vt 0.5278 0.2000 1.0000
vt 0.5833 0.2000 1.0000
vt 0.6389 0.2000 1.0000
vt 0.6944 0.2000 1.0000
vt 0.8056 0.4000 1.0000
vt 0.7500 0.4000 1.0000
vt 0.8611 0.4000 1.0000
vt 0.9167 0.4000 1.0000
vt 0.9722 0.4000 1.0000
vt 0.0278 0.4000 1.0000
vt -0.0278 0.4000 1.0000
vt 0.0833 0.4000 1.0000
vt 0.1389 0.4000 1.0000
vt 0.1944 0.4000 1.0000
vt 0.2500 0.4000 1.0000
vt 0.3056 0.4000 1.0000
vt 0.3611 0.4000 1.0000
vt 0.4167 0.4000 1.0000
vt 0.4722 0.4000 1.0000
vt 0.5278 0.4000 1.0000
vt 0.5833 0.4000 1.0000
vt 0.6389 0.4000 1.0000
vt 0.6944 0.4000 1.0000
vt 0.8056 0.6000 1.0000
vt 0.7500 0.6000 1.0000
vt 0.8611 0.6000 1.0000
vt 0.9167 0.6000 1.0000
vt 0.9722 0.6000 1.0000
vt 0.0278 0.6000 1.0000
vt -0.0278 0.6000 1.0000
vt 0.0833 0.6000 1.0000
vt 0.1389 0.6000 1.0000
vt 0.1944 0.6000 1.0000
vt 0.2500 0.6000 1.0000
vt 0.3056 0.6000 1.0000
vt 0.3611 0.6000 1.0000
vt 0.4167 0.6000 1.0000
vt 0.4722 0.6000 1.0000
vt 0.5278 0.6000 1.0000
vt 0.5833 0.6000 1.0000
vt 0.6389 0.6000 1.0000
vt 0.6944 0.6000 1.0000
vt 0.8056 0.8000 1.0000
vt 0.7500 0.8000 1.0000
vt 0.8611 0.8000 1.0000
vt 0.9167 0.8000 1.0000
vt 0.9722 0.8000 1.0000
vt 0.0278 0.8000 1.0000
vt -0.0278 0.8000 1.0000
vt 0.0833 0.8000 1.0000
vt 0.1389 0.8000 1.0000
vt 0.1944 0.8000 1.0000
vt 0.2500 0.8000 1.0000
vt 0.3056 0.8000 1.0000
vt 0.3611 0.8000 1.0000
vt 0.4167 0.8000 1.0000
vt 0.4722 0.8000 1.0000
vt 0.5278 0.8000 1.0000
vt 0.5833 0.8000 1.0000
vt 0.6389 0.8000 1.0000
vt 0.6944 0.8000 1.0000
vt 0.8056 1.0000 1.0000
vt 0.7500 1.0000 1.0000
vt 0.8611 1.0000 1.0000
vt 0.9167 1.0000 1.0000
vt 0.9722 1.0000 1.0000
vt 0.0278 1.0000 1.0000
vt -0.0278 1.0000 1.0000
vt 0.0833 1.0000 1.0000
vt 0.1389 1.0000 1.0000
vt 0.1944 1.0000 1.0000
vt 0.2500 1.0000 1.0000
vt 0.3056 1.0000 1.0000
vt 0.3611 1.0000 1.0000
vt 0.4167 1.0000 1.0000
vt 0.4722 1.0000 1.0000
vt 0.5278 1.0000 1.0000
vt 0.5833 1.0000 1.0000
vt 0.6389 1.0000 1.0000
vt 0.6944 1.0000 1.0000
vt 0.5000 1.0000 0.0000
vt 0.9708 1.0000 0.8794
# 117 texture coords

o Cylinder002
g Cylinder002
usemtl wire_135006006
s 1
f 9/5/9 10/6/10 11/7/11 12/8/12 
f 9/5/9 13/9/13 14/10/14 10/6/10 
f 9/5/9 15/11/15 16/12/16 13/13/13 
f 9/5/9 17/14/17 18/15/18 15/11/15 
f 9/5/9 19/16/19 20/17/20 17/14/17 
f 9/5/9 21/18/21 22/19/22 19/16/19 
f 9/5/9 23/20/23 24/21/24 21/18/21 
f 9/5/9 25/22/25 26/23/26 23/20/23 
f 9/5/9 12/8/12 27/24/27 25/22/25 
s 8
f 12/8/12 11/7/11 28/25/28 29/26/29 
f 11/7/11 10/6/10 30/27/30 28/25/28 
f 10/6/10 14/10/14 31/28/31 30/27/30 
f 14/10/14 13/9/13 32/29/32 31/28/31 
f 13/13/13 16/12/16 33/30/33 32/31/32 
f 16/12/16 15/11/15 34/32/34 33/30/33 
f 15/11/15 18/15/18 35/33/35 34/32/34 
f 18/15/18 17/14/17 36/34/36 35/33/35 
f 17/14/17 20/17/20 37/35/37 36/34/36 
f 20/17/20 19/16/19 38/36/38 37/35/37 
f 19/16/19 22/19/22 39/37/39 38/36/38 
f 22/19/22 21/18/21 40/38/40 39/37/39 
f 21/18/21 24/21/24 41/39/41 40/38/40 
f 24/21/24 23/20/23 42/40/42 41/39/41 
f 23/20/23 26/23/26 43/41/43 42/40/42 
f 26/23/26 25/22/25 44/42/44 43/41/43 
f 25/22/25 27/24/27 45/43/45 44/42/44 
f 27/24/27 12/8/12 29/26/29 45/43/45 
f 29/26/29 28/25/28 46/44/28 47/45/29 
f 28/25/28 30/27/30 48/46/30 46/44/28 
f 30/27/30 31/28/31 49/47/31 48/46/30 
f 31/28/31 32/29/32 50/48/32 49/47/31 
f 32/31/32 33/30/33 51/49/33 50/50/32 
f 33/30/33 34/32/34 52/51/34 51/49/33 
f 34/32/34 35/33/35 53/52/35 52/51/34 
f 35/33/35 36/34/36 54/53/36 53/52/35 
f 36/34/36 37/35/37 55/54/37 54/53/36 
f 37/35/37 38/36/38 56/55/38 55/54/37 
f 38/36/38 39/37/39 57/56/39 56/55/38 
f 39/37/39 40/38/40 58/57/40 57/56/39 
f 40/38/40 41/39/41 59/58/41 58/57/40 
f 41/39/41 42/40/42 60/59/42 59/58/41 
f 42/40/42 43/41/43 61/60/43 60/59/42 
f 43/41/43 44/42/44 62/61/44 61/60/43 
f 44/42/44 45/43/45 63/62/45 62/61/44 
f 45/43/45 29/26/29 47/45/29 63/62/45 
f 47/45/29 46/44/28 64/63/28 65/64/29 
f 46/44/28 48/46/30 66/65/30 64/63/28 
f 48/46/30 49/47/31 67/66/31 66/65/30 
f 49/47/31 50/48/32 68/67/32 67/66/31 
f 50/50/32 51/49/33 69/68/33 68/69/32 
f 51/49/33 52/51/34 70/70/34 69/68/33 
f 52/51/34 53/52/35 71/71/35 70/70/34 
f 53/52/35 54/53/36 72/72/36 71/71/35 
f 54/53/36 55/54/37 73/73/37 72/72/36 
f 55/54/37 56/55/38 74/74/38 73/73/37 
f 56/55/38 57/56/39 75/75/39 74/74/38 
f 57/56/39 58/57/40 76/76/40 75/75/39 
f 58/57/40 59/58/41 77/77/41 76/76/40 
f 59/58/41 60/59/42 78/78/42 77/77/41 
f 60/59/42 61/60/43 79/79/43 78/78/42 
f 61/60/43 62/61/44 80/80/44 79/79/43 
f 62/61/44 63/62/45 81/81/45 80/80/44 
f 63/62/45 47/45/29 65/64/29 81/81/45 
f 65/64/29 64/63/28 82/82/28 83/83/29 
f 64/63/28 66/65/30 84/84/30 82/82/28 
f 66/65/30 67/66/31 85/85/31 84/84/30 
f 67/66/31 68/67/32 86/86/32 85/85/31 
f 68/69/32 69/68/33 87/87/33 86/88/32 
f 69/68/33 70/70/34 88/89/34 87/87/33 
f 70/70/34 71/71/35 89/90/35 88/89/34 
f 71/71/35 72/72/36 90/91/36 89/90/35 
f 72/72/36 73/73/37 91/92/37 90/91/36 
f 73/73/37 74/74/38 92/93/38 91/92/37 
f 74/74/38 75/75/39 93/94/39 92/93/38 
f 75/75/39 76/76/40 94/95/40 93/94/39 
f 76/76/40 77/77/41 95/96/41 94/95/40 
f 77/77/41 78/78/42 96/97/42 95/96/41 
f 78/78/42 79/79/43 97/98/43 96/97/42 
f 79/79/43 80/80/44 98/99/44 97/98/43 
f 80/80/44 81/81/45 99/100/45 98/99/44 
f 81/81/45 65/64/29 83/83/29 99/100/45 
f 83/83/29 82/82/28 100/101/46 101/102/47 
f 82/82/28 84/84/30 102/103/48 100/101/46 
f 84/84/30 85/85/31 103/104/49 102/103/48 
f 85/85/31 86/86/32 104/105/50 103/104/49 
f 86/88/32 87/87/33 105/106/51 104/107/50 
f 87/87/33 88/89/34 106/108/52 105/106/51 
f 88/89/34 89/90/35 107/109/53 106/108/52 
f 89/90/35 90/91/36 108/110/54 107/109/53 
f 90/91/36 91/92/37 109/111/55 108/110/54 
f 91/92/37 92/93/38 110/112/56 109/111/55 
f 92/93/38 93/94/39 111/113/57 110/112/56 
f 93/94/39 94/95/40 112/114/58 111/113/57 
f 94/95/40 95/96/41 113/115/59 112/114/58 
f 95/96/41 96/97/42 114/116/60 113/115/59 
f 96/97/42 97/98/43 115/117/61 114/116/60 
f 97/98/43 98/99/44 116/118/62 115/117/61 
f 98/99/44 99/100/45 117/119/63 116/118/62 
f 99/100/45 83/83/29 101/102/47 117/119/63 
s 1
f 118/120/64 117/119/63 101/102/47 100/101/46 
f 118/120/64 100/101/46 102/103/48 103/104/49 
f 118/120/64 103/104/49 104/105/50 105/121/51 
f 118/120/64 105/106/51 106/108/52 107/109/53 
f 118/120/64 107/109/53 108/110/54 109/111/55 
f 118/120/64 109/111/55 110/112/56 111/113/57 
f 118/120/64 111/113/57 112/114/58 113/115/59 
f 118/120/64 113/115/59 114/116/60 115/117/61 
f 118/120/64 115/117/61 116/118/62 117/119/63 
# 108 polygons

#
# object Cylinder003
#

v  1.2531 1.1131 0.1962
v  1.2531 1.0978 0.1833
v  1.2531 1.0943 0.1894
v  1.2531 1.0931 0.1962
v  1.2531 1.1096 0.1765
v  1.2531 1.1031 0.1789
v  1.2531 1.1231 0.1789
v  1.2531 1.1166 0.1765
v  1.2531 1.1319 0.1894
v  1.2531 1.1284 0.1833
v  1.2531 1.1319 0.2030
v  1.2531 1.1331 0.1962
v  1.2531 1.1231 0.2135
v  1.2531 1.1284 0.2091
v  1.2531 1.1096 0.2159
v  1.2531 1.1166 0.2159
v  1.2531 1.0978 0.2091
v  1.2531 1.1031 0.2135
v  1.2531 1.0943 0.2030
v  1.4031 1.0943 0.1894
v  1.4031 1.0931 0.1962
v  1.4031 1.0978 0.1833
v  1.4031 1.1031 0.1789
v  1.4031 1.1096 0.1765
v  1.4031 1.1166 0.1765
v  1.4031 1.1231 0.1789
v  1.4031 1.1284 0.1833
v  1.4031 1.1319 0.1894
v  1.4031 1.1331 0.1962
v  1.4031 1.1319 0.2030
v  1.4031 1.1284 0.2091
v  1.4031 1.1231 0.2135
v  1.4031 1.1166 0.2159
v  1.4031 1.1096 0.2159
v  1.4031 1.1031 0.2135
v  1.4031 1.0978 0.2091
v  1.4031 1.0943 0.2030
v  1.5531 1.0943 0.1894
v  1.5531 1.0931 0.1962
v  1.5531 1.0978 0.1833
v  1.5531 1.1031 0.1789
v  1.5531 1.1096 0.1765
v  1.5531 1.1166 0.1765
v  1.5531 1.1231 0.1789
v  1.5531 1.1284 0.1833
v  1.5531 1.1319 0.1894
v  1.5531 1.1331 0.1962
v  1.5531 1.1319 0.2030
v  1.5531 1.1284 0.2091
v  1.5531 1.1231 0.2135
v  1.5531 1.1166 0.2159
v  1.5531 1.1096 0.2159
v  1.5531 1.1031 0.2135
v  1.5531 1.0978 0.2091
v  1.5531 1.0943 0.2030
v  1.7031 1.0943 0.1894
v  1.7031 1.0931 0.1962
v  1.7031 1.0978 0.1833
v  1.7031 1.1031 0.1789
v  1.7031 1.1096 0.1765
v  1.7031 1.1166 0.1765
v  1.7031 1.1231 0.1789
v  1.7031 1.1284 0.1833
v  1.7031 1.1319 0.1894
v  1.7031 1.1331 0.1962
v  1.7031 1.1319 0.2030
v  1.7031 1.1284 0.2091
v  1.7031 1.1231 0.2135
v  1.7031 1.1166 0.2159
v  1.7031 1.1096 0.2159
v  1.7031 1.1031 0.2135
v  1.7031 1.0978 0.2091
v  1.7031 1.0943 0.2030
v  1.8531 1.0943 0.1894
v  1.8531 1.0931 0.1962
v  1.8531 1.0978 0.1833
v  1.8531 1.1031 0.1789
v  1.8531 1.1096 0.1765
v  1.8531 1.1166 0.1765
v  1.8531 1.1231 0.1789
v  1.8531 1.1284 0.1833
v  1.8531 1.1319 0.1894
v  1.8531 1.1331 0.1962
v  1.8531 1.1319 0.2030
v  1.8531 1.1284 0.2091
v  1.8531 1.1231 0.2135
v  1.8531 1.1166 0.2159
v  1.8531 1.1096 0.2159
v  1.8531 1.1031 0.2135
v  1.8531 1.0978 0.2091
v  1.8531 1.0943 0.2030
v  2.0031 1.0943 0.1894
v  2.0031 1.0931 0.1962
v  2.0031 1.0978 0.1833
v  2.0031 1.1031 0.1789
v  2.0031 1.1096 0.1765
v  2.0031 1.1166 0.1765
v  2.0031 1.1231 0.1789
v  2.0031 1.1284 0.1833
v  2.0031 1.1319 0.1894
v  2.0031 1.1331 0.1962
v  2.0031 1.1319 0.2030
v  2.0031 1.1284 0.2091
v  2.0031 1.1231 0.2135
v  2.0031 1.1166 0.2159
v  2.0031 1.1096 0.2159
v  2.0031 1.1031 0.2135
v  2.0031 1.0978 0.2091
v  2.0031 1.0943 0.2030
v  2.0031 1.1131 0.1962
# 110 vertices

vn -1.0000 -0.0000 -0.0000
vn -0.6700 -0.5687 -0.4772
vn -0.6701 -0.6975 -0.2539
vn -0.6701 -0.7423 0.0000
vn -0.6700 -0.1289 -0.7311
vn -0.6700 -0.3712 -0.6429
vn -0.6700 0.3712 -0.6429
vn -0.6700 0.1289 -0.7311
vn -0.6701 0.6975 -0.2539
vn -0.6701 0.5686 -0.4771
vn -0.6700 0.6976 0.2539
vn -0.6701 0.7423 0.0000
vn -0.6700 0.3712 0.6429
vn -0.6700 0.5687 0.4772
vn -0.6700 -0.1289 0.7311
vn -0.6700 0.1289 0.7311
vn -0.6701 -0.5686 0.4772
vn -0.6700 -0.3712 0.6429
vn -0.6701 -0.6975 0.2539
vn 0.0000 -0.9397 -0.3420
vn 0.0000 -1.0000 0.0000
vn 0.0000 -0.7660 -0.6428
vn 0.0000 -0.5000 -0.8660
vn 0.0000 -0.1736 -0.9848
vn -0.0000 0.1736 -0.9848
vn -0.0000 0.5000 -0.8660
vn -0.0000 0.7660 -0.6428
vn -0.0000 0.9397 -0.3420
vn -0.0000 1.0000 0.0000
vn -0.0000 0.9397 0.3420
vn -0.0000 0.7660 0.6428
vn -0.0000 0.5000 0.8660
vn -0.0000 0.1736 0.9848
vn 0.0000 -0.1736 0.9848
vn 0.0000 -0.5000 0.8660
vn 0.0000 -0.7660 0.6428
vn 0.0000 -0.9397 0.3420
vn 0.6701 -0.6975 -0.2539
vn 0.6701 -0.7423 0.0000
vn 0.6700 -0.5687 -0.4772
vn 0.6700 -0.3712 -0.6429
vn 0.6700 -0.1289 -0.7311
vn 0.6700 0.1289 -0.7311
vn 0.6700 0.3712 -0.6429
vn 0.6701 0.5686 -0.4772
vn 0.6701 0.6975 -0.2539
vn 0.6701 0.7423 0.0000
vn 0.6700 0.6976 0.2539
vn 0.6700 0.5687 0.4772
vn 0.6700 0.3712 0.6429
vn 0.6700 0.1289 0.7311
vn 0.6700 -0.1289 0.7311
vn 0.6700 -0.3712 0.6429
vn 0.6701 -0.5686 0.4772
vn 0.6701 -0.6975 0.2539
vn 1.0000 0.0000 -0.0000
# 56 vertex normals

vt 0.5000 0.0000 0.0000
vt 0.8611 0.0000 1.0000
vt 0.8056 0.0000 1.0000
vt 0.7500 0.0000 1.0000
vt 0.9722 0.0000 1.0000
vt 0.9167 0.0000 1.0000
vt 0.0833 0.0000 1.0000
vt 0.0278 0.0000 1.0000
vt -0.0278 0.0000 1.0000
vt 0.1944 0.0000 1.0000
vt 0.1389 0.0000 1.0000
vt 0.3056 0.0000 1.0000
vt 0.2500 0.0000 1.0000
vt 0.4167 0.0000 1.0000
vt 0.3611 0.0000 1.0000
vt 0.5278 0.0000 1.0000
vt 0.4722 0.0000 1.0000
vt 0.6389 0.0000 1.0000
vt 0.5833 0.0000 1.0000
vt 0.6944 0.0000 1.0000
vt 0.8056 0.2000 1.0000
vt 0.7500 0.2000 1.0000
vt 0.8611 0.2000 1.0000
vt 0.9167 0.2000 1.0000
vt 0.9722 0.2000 1.0000
vt 0.0278 0.2000 1.0000
vt -0.0278 0.2000 1.0000
vt 0.0833 0.2000 1.0000
vt 0.1389 0.2000 1.0000
vt 0.1944 0.2000 1.0000
vt 0.2500 0.2000 1.0000
vt 0.3056 0.2000 1.0000
vt 0.3611 0.2000 1.0000
vt 0.4167 0.2000 1.0000
vt 0.4722 0.2000 1.0000
vt 0.5278 0.2000 1.0000
vt 0.5833 0.2000 1.0000
vt 0.6389 0.2000 1.0000
vt 0.6944 0.2000 1.0000
vt 0.8056 0.4000 1.0000
vt 0.7500 0.4000 1.0000
vt 0.8611 0.4000 1.0000
vt 0.9167 0.4000 1.0000
vt 0.9722 0.4000 1.0000
vt 0.0278 0.4000 1.0000
vt -0.0278 0.4000 1.0000
vt 0.0833 0.4000 1.0000
vt 0.1389 0.4000 1.0000
vt 0.1944 0.4000 1.0000
vt 0.2500 0.4000 1.0000
vt 0.3056 0.4000 1.0000
vt 0.3611 0.4000 1.0000
vt 0.4167 0.4000 1.0000
vt 0.4722 0.4000 1.0000
vt 0.5278 0.4000 1.0000
vt 0.5833 0.4000 1.0000
vt 0.6389 0.4000 1.0000
vt 0.6944 0.4000 1.0000
vt 0.8056 0.6000 1.0000
vt 0.7500 0.6000 1.0000
vt 0.8611 0.6000 1.0000
vt 0.9167 0.6000 1.0000
vt 0.9722 0.6000 1.0000
vt 0.0278 0.6000 1.0000
vt -0.0278 0.6000 1.0000
vt 0.0833 0.6000 1.0000
vt 0.1389 0.6000 1.0000
vt 0.1944 0.6000 1.0000
vt 0.2500 0.6000 1.0000
vt 0.3056 0.6000 1.0000
vt 0.3611 0.6000 1.0000
vt 0.4167 0.6000 1.0000
vt 0.4722 0.6000 1.0000
vt 0.5278 0.6000 1.0000
vt 0.5833 0.6000 1.0000
vt 0.6389 0.6000 1.0000
vt 0.6944 0.6000 1.0000
vt 0.8056 0.8000 1.0000
vt 0.7500 0.8000 1.0000
vt 0.8611 0.8000 1.0000
vt 0.9167 0.8000 1.0000
vt 0.9722 0.8000 1.0000
vt 0.0278 0.8000 1.0000
vt -0.0278 0.8000 1.0000
vt 0.0833 0.8000 1.0000
vt 0.1389 0.8000 1.0000
vt 0.1944 0.8000 1.0000
vt 0.2500 0.8000 1.0000
vt 0.3056 0.8000 1.0000
vt 0.3611 0.8000 1.0000
vt 0.4167 0.8000 1.0000
vt 0.4722 0.8000 1.0000
vt 0.5278 0.8000 1.0000
vt 0.5833 0.8000 1.0000
vt 0.6389 0.8000 1.0000
vt 0.6944 0.8000 1.0000
vt 0.8056 1.0000 1.0000
vt 0.7500 1.0000 1.0000
vt 0.8611 1.0000 1.0000
vt 0.9167 1.0000 1.0000
vt 0.9722 1.0000 1.0000
vt 0.0278 1.0000 1.0000
vt -0.0278 1.0000 1.0000
vt 0.0833 1.0000 1.0000
vt 0.1389 1.0000 1.0000
vt 0.1944 1.0000 1.0000
vt 0.2500 1.0000 1.0000
vt 0.3056 1.0000 1.0000
vt 0.3611 1.0000 1.0000
vt 0.4167 1.0000 1.0000
vt 0.4722 1.0000 1.0000
vt 0.5278 1.0000 1.0000
vt 0.5833 1.0000 1.0000
vt 0.6389 1.0000 1.0000
vt 0.6944 1.0000 1.0000
vt 0.5000 1.0000 0.0000
vt 0.9708 1.0000 0.8794
# 117 texture coords

o Cylinder003
g Cylinder003
usemtl wire_028089177
s 1
f 119/122/65 120/123/66 121/124/67 122/125/68 
f 119/122/65 123/126/69 124/127/70 120/123/66 
f 119/122/65 125/128/71 126/129/72 123/130/69 
f 119/122/65 127/131/73 128/132/74 125/128/71 
f 119/122/65 129/133/75 130/134/76 127/131/73 
f 119/122/65 131/135/77 132/136/78 129/133/75 
f 119/122/65 133/137/79 134/138/80 131/135/77 
f 119/122/65 135/139/81 136/140/82 133/137/79 
f 119/122/65 122/125/68 137/141/83 135/139/81 
s 8
f 122/125/68 121/124/67 138/142/84 139/143/85 
f 121/124/67 120/123/66 140/144/86 138/142/84 
f 120/123/66 124/127/70 141/145/87 140/144/86 
f 124/127/70 123/126/69 142/146/88 141/145/87 
f 123/130/69 126/129/72 143/147/89 142/148/88 
f 126/129/72 125/128/71 144/149/90 143/147/89 
f 125/128/71 128/132/74 145/150/91 144/149/90 
f 128/132/74 127/131/73 146/151/92 145/150/91 
f 127/131/73 130/134/76 147/152/93 146/151/92 
f 130/134/76 129/133/75 148/153/94 147/152/93 
f 129/133/75 132/136/78 149/154/95 148/153/94 
f 132/136/78 131/135/77 150/155/96 149/154/95 
f 131/135/77 134/138/80 151/156/97 150/155/96 
f 134/138/80 133/137/79 152/157/98 151/156/97 
f 133/137/79 136/140/82 153/158/99 152/157/98 
f 136/140/82 135/139/81 154/159/100 153/158/99 
f 135/139/81 137/141/83 155/160/101 154/159/100 
f 137/141/83 122/125/68 139/143/85 155/160/101 
f 139/143/85 138/142/84 156/161/84 157/162/85 
f 138/142/84 140/144/86 158/163/86 156/161/84 
f 140/144/86 141/145/87 159/164/87 158/163/86 
f 141/145/87 142/146/88 160/165/88 159/164/87 
f 142/148/88 143/147/89 161/166/89 160/167/88 
f 143/147/89 144/149/90 162/168/90 161/166/89 
f 144/149/90 145/150/91 163/169/91 162/168/90 
f 145/150/91 146/151/92 164/170/92 163/169/91 
f 146/151/92 147/152/93 165/171/93 164/170/92 
f 147/152/93 148/153/94 166/172/94 165/171/93 
f 148/153/94 149/154/95 167/173/95 166/172/94 
f 149/154/95 150/155/96 168/174/96 167/173/95 
f 150/155/96 151/156/97 169/175/97 168/174/96 
f 151/156/97 152/157/98 170/176/98 169/175/97 
f 152/157/98 153/158/99 171/177/99 170/176/98 
f 153/158/99 154/159/100 172/178/100 171/177/99 
f 154/159/100 155/160/101 173/179/101 172/178/100 
f 155/160/101 139/143/85 157/162/85 173/179/101 
f 157/162/85 156/161/84 174/180/84 175/181/85 
f 156/161/84 158/163/86 176/182/86 174/180/84 
f 158/163/86 159/164/87 177/183/87 176/182/86 
f 159/164/87 160/165/88 178/184/88 177/183/87 
f 160/167/88 161/166/89 179/185/89 178/186/88 
f 161/166/89 162/168/90 180/187/90 179/185/89 
f 162/168/90 163/169/91 181/188/91 180/187/90 
f 163/169/91 164/170/92 182/189/92 181/188/91 
f 164/170/92 165/171/93 183/190/93 182/189/92 
f 165/171/93 166/172/94 184/191/94 183/190/93 
f 166/172/94 167/173/95 185/192/95 184/191/94 
f 167/173/95 168/174/96 186/193/96 185/192/95 
f 168/174/96 169/175/97 187/194/97 186/193/96 
f 169/175/97 170/176/98 188/195/98 187/194/97 
f 170/176/98 171/177/99 189/196/99 188/195/98 
f 171/177/99 172/178/100 190/197/100 189/196/99 
f 172/178/100 173/179/101 191/198/101 190/197/100 
f 173/179/101 157/162/85 175/181/85 191/198/101 
f 175/181/85 174/180/84 192/199/84 193/200/85 
f 174/180/84 176/182/86 194/201/86 192/199/84 
f 176/182/86 177/183/87 195/202/87 194/201/86 
f 177/183/87 178/184/88 196/203/88 195/202/87 
f 178/186/88 179/185/89 197/204/89 196/205/88 
f 179/185/89 180/187/90 198/206/90 197/204/89 
f 180/187/90 181/188/91 199/207/91 198/206/90 
f 181/188/91 182/189/92 200/208/92 199/207/91 
f 182/189/92 183/190/93 201/209/93 200/208/92 
f 183/190/93 184/191/94 202/210/94 201/209/93 
f 184/191/94 185/192/95 203/211/95 202/210/94 
f 185/192/95 186/193/96 204/212/96 203/211/95 
f 186/193/96 187/194/97 205/213/97 204/212/96 
f 187/194/97 188/195/98 206/214/98 205/213/97 
f 188/195/98 189/196/99 207/215/99 206/214/98 
f 189/196/99 190/197/100 208/216/100 207/215/99 
f 190/197/100 191/198/101 209/217/101 208/216/100 
f 191/198/101 175/181/85 193/200/85 209/217/101 
f 193/200/85 192/199/84 210/218/102 211/219/103 
f 192/199/84 194/201/86 212/220/104 210/218/102 
f 194/201/86 195/202/87 213/221/105 212/220/104 
f 195/202/87 196/203/88 214/222/106 213/221/105 
f 196/205/88 197/204/89 215/223/107 214/224/106 
f 197/204/89 198/206/90 216/225/108 215/223/107 
f 198/206/90 199/207/91 217/226/109 216/225/108 
f 199/207/91 200/208/92 218/227/110 217/226/109 
f 200/208/92 201/209/93 219/228/111 218/227/110 
f 201/209/93 202/210/94 220/229/112 219/228/111 
f 202/210/94 203/211/95 221/230/113 220/229/112 
f 203/211/95 204/212/96 222/231/114 221/230/113 
f 204/212/96 205/213/97 223/232/115 222/231/114 
f 205/213/97 206/214/98 224/233/116 223/232/115 
f 206/214/98 207/215/99 225/234/117 224/233/116 
f 207/215/99 208/216/100 226/235/118 225/234/117 
f 208/216/100 209/217/101 227/236/119 226/235/118 
f 209/217/101 193/200/85 211/219/103 227/236/119 
s 1
f 228/237/120 227/236/119 211/219/103 210/218/102 
f 228/237/120 210/218/102 212/220/104 213/221/105 
f 228/237/120 213/221/105 214/222/106 215/238/107 
f 228/237/120 215/223/107 216/225/108 217/226/109 
f 228/237/120 217/226/109 218/227/110 219/228/111 
f 228/237/120 219/228/111 220/229/112 221/230/113 
f 228/237/120 221/230/113 222/231/114 223/232/115 
f 228/237/120 223/232/115 224/233/116 225/234/117 
f 228/237/120 225/234/117 226/235/118 227/236/119 
# 108 polygons

